<svg xmlns="http://www.w3.org/2000/svg" width="977" height="900" fill="none" viewBox="0 0 977 900"><path fill="#AF62B0" fill-opacity=".27" d="M381 330C381 330 619 194 647 10C647 10 749 -144 779 -122C809 -99.9999 1059 -122 1059 -122C1059 -122 1070.01 36.0004 993.318 82.0004C916.629 128 850.007 228.001 740.007 402C630.007 576 675 718 453 758C231 798 241 636 241 636C185 472 381 330 381 330Z"/><path fill="#AF62B0" fill-opacity=".27" d="M213.156 401.364C213.156 401.364 551.224 245.237 590.996 34.0051C590.996 34.0051 735.882 -142.786 778.496 -117.531C821.109 -92.2746 1176.22 -117.531 1176.22 -117.531C1176.22 -117.531 1191.86 63.8535 1082.92 116.661C973.991 169.469 879.358 284.269 723.108 484.02C566.859 683.771 630.769 846.788 315.429 892.708C0.0887756 938.628 14.2933 752.652 14.2933 752.652C-65.252 564.38 213.156 401.364 213.156 401.364Z"/></svg>